<svg height="100%" width="100%" focusable="false" viewBox="0 0 16 16"  xmlns="http://www.w3.org/2000/svg">  
	<path key="0" class="OfficeIconColors_HighContrast" d="M16,2.617c0,0.344-0.065,0.677-0.195,1s-0.32,0.609-0.57,0.859l-10.29,10.29L0,16l1.234-4.945L11.523,0.766
	c0.25-0.25,0.536-0.44,0.859-0.57s0.656-0.195,1-0.195c0.359,0,0.698,0.07,1.016,0.211c0.318,0.135,0.594,0.323,0.828,0.562
	c0.24,0.234,0.427,0.51,0.562,0.828C15.93,1.919,16,2.258,16,2.617z M2.547,11.156c0.552,0.182,1.026,0.474,1.422,0.875
	c0.401,0.396,0.693,0.87,0.875,1.422L13.289,5L11,2.711L2.547,11.156z M1.375,14.625l2.57-0.641c-0.052-0.24-0.138-0.466-0.258-0.68
	c-0.115-0.214-0.255-0.404-0.422-0.57c-0.167-0.167-0.357-0.307-0.57-0.422c-0.214-0.12-0.44-0.206-0.68-0.258L1.375,14.625z
	 M14,4.289c0.13-0.13,0.255-0.253,0.375-0.367c0.12-0.115,0.227-0.234,0.32-0.359c0.094-0.13,0.167-0.268,0.219-0.414
	C14.971,2.997,15,2.823,15,2.625C15,2.401,14.956,2.193,14.867,2c-0.083-0.198-0.2-0.37-0.352-0.516
	C14.37,1.333,14.198,1.216,14,1.133C13.807,1.044,13.599,1,13.375,1c-0.198,0-0.372,0.029-0.523,0.086
	c-0.146,0.052-0.284,0.125-0.414,0.219c-0.125,0.094-0.245,0.201-0.359,0.32S11.841,1.87,11.711,2L14,4.289z"></path>
	
	<path key="1" class="OfficeIconColors_m20" d="M1.375,14.625l2.57-0.641c-0.052-0.24-0.138-0.466-0.258-0.68c-0.115-0.214-0.255-0.404-0.422-0.57
	c-0.167-0.167-0.357-0.307-0.57-0.422c-0.214-0.12-0.44-0.206-0.68-0.258L1.375,14.625z" fill="#fafafa"></path>
	
	<path key="2" class="OfficeIconColors_m212" d="M2.547,11.156c0.552,0.182,1.026,0.474,1.422,0.875c0.401,0.396,0.693,0.87,0.875,1.422L13.289,5L11,2.711
	L2.547,11.156z" fill="#f6dc95"></path>
	
	<path key="3" class="OfficeIconColors_m221" d="M14,4.289c0.13-0.13,0.255-0.253,0.375-0.367c0.12-0.115,0.227-0.234,0.32-0.359
	c0.094-0.13,0.167-0.268,0.219-0.414C14.971,2.997,15,2.823,15,2.625C15,2.401,14.956,2.193,14.867,2
	c-0.083-0.198-0.2-0.37-0.352-0.516C14.37,1.333,14.198,1.216,14,1.133C13.807,1.044,13.599,1,13.375,1
	c-0.198,0-0.372,0.029-0.523,0.086c-0.146,0.052-0.284,0.125-0.414,0.219c-0.125,0.094-0.245,0.201-0.359,0.32S11.841,1.87,11.711,2
	L14,4.289z"  fill="#d194d6"></path>
	
	<path key="4" class="OfficeIconColors_m22" d="M16,2.617c0,0.344-0.065,0.677-0.195,1s-0.32,0.609-0.57,0.859l-10.29,10.29L0,16l1.234-4.945L11.523,0.766
	c0.25-0.25,0.536-0.44,0.859-0.57s0.656-0.195,1-0.195c0.359,0,0.698,0.07,1.016,0.211c0.318,0.135,0.594,0.323,0.828,0.562
	c0.24,0.234,0.427,0.51,0.562,0.828C15.93,1.919,16,2.258,16,2.617z M2.547,11.156c0.552,0.182,1.026,0.474,1.422,0.875
	c0.401,0.396,0.693,0.87,0.875,1.422L13.289,5L11,2.711L2.547,11.156z M1.375,14.625l2.57-0.641c-0.052-0.24-0.138-0.466-0.258-0.68
	c-0.115-0.214-0.255-0.404-0.422-0.57c-0.167-0.167-0.357-0.307-0.57-0.422c-0.214-0.12-0.44-0.206-0.68-0.258L1.375,14.625z
	 M14,4.289c0.13-0.13,0.255-0.253,0.375-0.367c0.12-0.115,0.227-0.234,0.32-0.359c0.094-0.13,0.167-0.268,0.219-0.414
	C14.971,2.997,15,2.823,15,2.625C15,2.401,14.956,2.193,14.867,2c-0.083-0.198-0.2-0.37-0.352-0.516
	C14.37,1.333,14.198,1.216,14,1.133C13.807,1.044,13.599,1,13.375,1c-0.198,0-0.372,0.029-0.523,0.086
	c-0.146,0.052-0.284,0.125-0.414,0.219c-0.125,0.094-0.245,0.201-0.359,0.32S11.841,1.87,11.711,2L14,4.289z" fill="#393936" ></path>
	
</svg>