<svg height="100%" width="100%" focusable="false"  viewBox="0 0 16 16" xmlns="http://www.w3.org/2000/svg" >

<path key="0" class="OfficeIconColors_HighContrast" d="M15,0c0.135,0,0.264,0.026,0.387,0.078c0.122,0.052,0.229,0.124,0.32,0.215
	c0.091,0.091,0.162,0.198,0.215,0.32C15.974,0.736,16,0.865,16,1v14c0,0.136-0.026,0.265-0.078,0.387
	c-0.053,0.122-0.124,0.229-0.215,0.32c-0.092,0.091-0.198,0.163-0.32,0.215C15.264,15.974,15.135,16,15,16H4
	c-0.136,0-0.265-0.026-0.387-0.078c-0.123-0.052-0.229-0.124-0.32-0.215c-0.092-0.091-0.163-0.198-0.215-0.32
	C3.025,15.265,3,15.136,3,15v-2H1c-0.136,0-0.265-0.025-0.387-0.078c-0.123-0.052-0.229-0.123-0.32-0.215
	c-0.092-0.091-0.163-0.197-0.215-0.32C0.025,12.265,0,12.136,0,12V4c0-0.135,0.025-0.264,0.078-0.387
	c0.052-0.122,0.123-0.229,0.215-0.32C0.384,3.202,0.49,3.13,0.613,3.078C0.735,3.026,0.864,3,1,3h2V1
	c0-0.135,0.025-0.264,0.078-0.387c0.052-0.122,0.123-0.229,0.215-0.32C3.384,0.202,3.49,0.13,3.613,0.078C3.735,0.026,3.864,0,4,0
	H15z M3.875,11.25l1.141-2.086l1.117,2.086h1.992L6.102,7.977L8.078,4.75H6.172L5.078,6.742L4.07,4.75H2.047l1.922,3.234
	L1.859,11.25H3.875z M9,3V1H4v2H9z M9,15v-2H4v2H9z M15,3V1h-5v2H15z M15,7V4h-5v3H15z M15,11V8h-5v3H15z M15,15v-3h-5v3H15z"></path>
	
	<path key="1" class="OfficeIconColors_m20" d="M3.875,11.25l1.141-2.086l1.117,2.086h1.992L6.102,7.977L8.078,4.75H6.172L5.078,6.742L4.07,4.75H2.047
	l1.922,3.234L1.859,11.25H3.875z M9,3V1H4v2H9z M9,15v-2H4v2H9z M15,3V1h-5v2H15z M15,7V4h-5v3H15z M15,11V8h-5v3H15z M15,15v-3h-5
	v3H15z" fill="#ffffff"></path>
	
	<path key="2" class="OfficeIconColors_m2194" d="M15,0c0.135,0,0.264,0.026,0.387,0.078c0.122,0.052,0.229,0.124,0.32,0.215
	c0.091,0.091,0.162,0.198,0.215,0.32C15.974,0.736,16,0.865,16,1v14c0,0.136-0.026,0.265-0.078,0.387
	c-0.053,0.122-0.124,0.229-0.215,0.32c-0.092,0.091-0.198,0.163-0.32,0.215C15.264,15.974,15.135,16,15,16H4
	c-0.136,0-0.265-0.026-0.387-0.078c-0.123-0.052-0.229-0.124-0.32-0.215c-0.092-0.091-0.163-0.198-0.215-0.32
	C3.025,15.265,3,15.136,3,15v-2H1c-0.136,0-0.265-0.025-0.387-0.078c-0.123-0.052-0.229-0.123-0.32-0.215
	c-0.092-0.091-0.163-0.197-0.215-0.32C0.025,12.265,0,12.136,0,12V4c0-0.135,0.025-0.264,0.078-0.387
	c0.052-0.122,0.123-0.229,0.215-0.32C0.384,3.202,0.49,3.13,0.613,3.078C0.735,3.026,0.864,3,1,3h2V1
	c0-0.135,0.025-0.264,0.078-0.387c0.052-0.122,0.123-0.229,0.215-0.32C3.384,0.202,3.49,0.13,3.613,0.078C3.735,0.026,3.864,0,4,0
	H15z M3.875,11.25l1.141-2.086l1.117,2.086h1.992L6.102,7.977L8.078,4.75H6.172L5.078,6.742L4.07,4.75H2.047l1.922,3.234
	L1.859,11.25H3.875z M9,3V1H4v2H9z M9,15v-2H4v2H9z M15,3V1h-5v2H15z M15,7V4h-5v3H15z M15,11V8h-5v3H15z M15,15v-3h-5v3H15z" fill="#237b45"></path></svg>