<svg height="100%" width="100%" focusable="false" viewBox="0 0 16 16"  xmlns="http://www.w3.org/2000/svg">

<path key="0" class="OfficeIconColors_HighContrast" d="M14,5V3.289L10.711,0H1v5H0v8h1v3h13v-3h1V5H14z M11,1.711L12.289,3H11V1.711z M2,1h8v3h3v1H2V1z M13,15H2
	v-2h11V15z M14,12H1V6h13V12z M11,11h-1V7h2.5v1H11v1h1.5v1H11V11z M3,10h0.5c0.208,0,0.404-0.039,0.586-0.117
	s0.341-0.185,0.477-0.32s0.242-0.294,0.32-0.477S5,8.708,5,8.5S4.961,8.096,4.883,7.914s-0.185-0.341-0.32-0.477
	s-0.294-0.242-0.477-0.32S3.708,7,3.5,7H2v4h1V10z M3,8h0.5c0.135,0,0.253,0.049,0.352,0.148S4,8.365,4,8.5S3.951,8.753,3.852,8.852
	S3.635,9,3.5,9H3V8z M7.773,10.844c0.245-0.104,0.458-0.247,0.641-0.43c0.182-0.182,0.326-0.393,0.43-0.633C8.948,9.536,9,9.276,9,9
	S8.948,8.466,8.844,8.227C8.74,7.982,8.596,7.768,8.414,7.586S8.018,7.26,7.773,7.156C7.534,7.052,7.276,7,7,7H6v4h1
	C7.276,11,7.534,10.948,7.773,10.844z M7,8c0.141,0,0.271,0.026,0.391,0.078s0.224,0.125,0.312,0.219
	C7.797,8.385,7.87,8.49,7.922,8.609S8,8.859,8,9S7.974,9.271,7.922,9.391s-0.125,0.227-0.219,0.32
	C7.615,9.799,7.51,9.87,7.391,9.922S7.141,10,7,10V8z"></path>
	
	<path key="1" class="OfficeIconColors_m20" d="M13,5H2V1h9l2,2V5z M1,6v6h13V6H1z M2,15h11v-2H2V15z" fill="#fafafa"></path>
	
	<path key="2" class="OfficeIconColors_m22" d="M13,5V4h-3V1H2v4H1V0h9.711L14,3.289V5H13z M13,13v2H2v-2H1v3h13v-3H13z M11,3h1.289L11,1.711V3z"  fill="#3a3a38" ></path>
	
	<path key="3" class="OfficeIconColors_m213" d="M14,6v6H1V6H14 M15,5H0v8h15V5L15,5z"  fill="#e74641"></path>
	
	<path key="4" class="OfficeIconColors_m23" d="M4.562,7.438c-0.135-0.135-0.294-0.242-0.477-0.32S3.708,7,3.5,7H2v4h1v-1h0.5
	c0.208,0,0.404-0.039,0.586-0.117s0.341-0.185,0.477-0.32s0.242-0.294,0.32-0.477S5,8.708,5,8.5S4.961,8.096,4.883,7.914
	S4.698,7.573,4.562,7.438z M3.852,8.852C3.753,8.951,3.635,9,3.5,9H3V8h0.5c0.135,0,0.253,0.049,0.352,0.148S4,8.365,4,8.5
	S3.951,8.753,3.852,8.852z M8.414,7.586C8.232,7.404,8.018,7.26,7.773,7.156C7.534,7.052,7.276,7,7,7H6v4h1
	c0.276,0,0.534-0.052,0.773-0.156c0.245-0.104,0.458-0.247,0.641-0.43c0.182-0.182,0.326-0.393,0.43-0.633C8.948,9.536,9,9.276,9,9
	S8.948,8.466,8.844,8.227C8.74,7.982,8.596,7.768,8.414,7.586z M7.922,9.391C7.87,9.51,7.797,9.617,7.703,9.711
	C7.615,9.799,7.51,9.87,7.391,9.922S7.141,10,7,10V8c0.141,0,0.271,0.026,0.391,0.078s0.224,0.125,0.312,0.219
	C7.797,8.385,7.87,8.49,7.922,8.609S8,8.859,8,9S7.974,9.271,7.922,9.391z M11,8v1h1.5v1H11v1h-1V7h2.5v1H11z" fill="#797774"></path></svg>