<svg height="100%" width="100%" focusable="false" viewBox="0,0,2048,2048"  xmlns="http://www.w3.org/2000/svg">

<path key="0" class="OfficeIconColors_HighContrast" d="M 1024 0 q 141 0 272 36 q 131 37 245 103 q 113 67 207 160 q 93 94 160 208 q 67 114 104 245 q 36 131 36 272 q 0 141 -36 272 q -37 131 -104 245 q -67 114 -160 207 q -94 94 -207 160 q -114 67 -245 103 q -131 37 -272 37 q -121 0 -234 -27 q -114 -27 -216 -77 q -102 -50 -190 -121 q -89 -71 -159 -159 h -97 q -26 0 -49 -10 q -24 -10 -41 -28 q -18 -17 -28 -41 q -10 -23 -10 -49 v -1024 q 0 -26 10 -50 q 10 -23 28 -41 q 17 -17 41 -27 q 23 -10 49 -10 h 97 q 70 -88 159 -159 q 88 -71 190 -121 q 102 -50 216 -77 q 113 -27 234 -27 m 128 384 q 26 0 50 10 q 23 10 41 27 q 17 18 27 41 q 10 24 10 50 v 512 h 640 q 0 -113 -26 -218 q -27 -105 -76 -198 q -50 -93 -119 -173 q -70 -79 -155 -140 q -85 -60 -184 -101 q -100 -40 -208 -56 m -128 -11 q -92 0 -178 18 q -87 18 -166 51 q -80 33 -151 80 q -72 48 -133 108 h 628 m -663 1056 h 206 v -271 h 107 q 72 0 130 -23 q 57 -22 97 -61 q 40 -39 62 -92 q 21 -52 21 -113 q 0 -131 -78 -202 q -79 -70 -223 -70 h -322 m 663 1311 q 113 0 218 -27 q 105 -27 198 -76 q 93 -49 173 -119 q 79 -69 140 -155 q 60 -85 101 -184 q 40 -99 56 -207 h -630 v 385 q 0 26 -10 49 q -10 24 -27 41 q -18 18 -41 28 q -24 10 -50 10 h -752 q 60 59 131 106 q 71 47 150 80 q 79 33 166 51 q 86 18 177 18 m -366 -932 h -91 v -196 h 95 q 36 0 58 8 q 21 8 32 21 q 11 14 15 31 q 3 17 3 35 q 0 52 -26 76 q -27 25 -86 25 z"></path>

<path key="1" class="OfficeIconColors_m20" d="M 1024 1984 q -109 0 -214 -24 q -105 -24 -201 -70 q -96 -46 -181 -113 q -85 -67 -153 -153 l -19 -24 h -128 q -26 0 -45 -19 q -19 -19 -19 -45 v -1024 q 0 -26 19 -45 q 19 -19 45 -19 h 128 l 19 -24 q 68 -86 153 -153 q 85 -67 181 -113 q 96 -46 201 -70 q 105 -24 214 -24 q 132 0 255 34 q 122 35 229 97 q 107 63 195 150 q 87 88 150 195 q 62 107 97 229 q 34 123 34 255 q 0 132 -34 254 q -35 123 -97 230 q -63 107 -150 194 q -88 88 -195 150 q -107 63 -229 97 q -123 35 -255 35 z" fill="#ffffff"></path>

<path key="2" class="OfficeIconColors_m2264" d="M 1024 0 q 141 0 272 36 q 131 37 245 103 q 113 67 207 160 q 93 94 160 208 q 67 114 104 245 q 36 131 36 272 q 0 141 -36 272 q -37 131 -104 245 q -67 114 -160 207 q -94 94 -207 160 q -114 67 -245 103 q -131 37 -272 37 q -121 0 -234 -27 q -114 -27 -216 -77 q -102 -50 -190 -121 q -89 -71 -159 -159 h -97 q -26 0 -49 -10 q -24 -10 -41 -28 q -18 -17 -28 -41 q -10 -23 -10 -49 v -1024 q 0 -26 10 -50 q 10 -23 28 -41 q 17 -17 41 -27 q 23 -10 49 -10 h 97 q 70 -88 159 -159 q 88 -71 190 -121 q 102 -50 216 -77 q 113 -27 234 -27 m 128 384 q 26 0 50 10 q 23 10 41 27 q 17 18 27 41 q 10 24 10 50 v 512 h 640 q 0 -113 -26 -218 q -27 -105 -76 -198 q -50 -93 -119 -173 q -70 -79 -155 -140 q -85 -60 -184 -101 q -100 -40 -208 -56 m -128 -11 q -92 0 -178 18 q -87 18 -166 51 q -80 33 -151 80 q -72 48 -133 108 h 628 m -663 1056 h 206 v -271 h 107 q 72 0 130 -23 q 57 -22 97 -61 q 40 -39 62 -92 q 21 -52 21 -113 q 0 -131 -78 -202 q -79 -70 -223 -70 h -322 m 663 1311 q 113 0 218 -27 q 105 -27 198 -76 q 93 -49 173 -119 q 79 -69 140 -155 q 60 -85 101 -184 q 40 -99 56 -207 h -630 v 385 q 0 26 -10 49 q -10 24 -27 41 q -18 18 -41 28 q -24 10 -50 10 h -752 q 60 59 131 106 q 71 47 150 80 q 79 33 166 51 q 86 18 177 18 m -366 -932 h -91 v -196 h 95 q 36 0 58 8 q 21 8 32 21 q 11 14 15 31 q 3 17 3 35 q 0 52 -26 76 q -27 25 -86 25 z" fill="#bf4426"></path></svg>